Coordinates
version=1
nRows=12
nColumns=24
inDegrees=yes

Units are S.I. units (second, meters, Newtons, ...)
Angles are in degrees.

endheader
time	pelvis_tilt	pelvis_list	pelvis_rotation	pelvis_tx	pelvis_ty	pelvis_tz	hip_flexion_r	hip_adduction_r	hip_rotation_r	knee_angle_r	ankle_angle_r	subtalar_angle_r	mtp_angle_r	hip_flexion_l	hip_adduction_l	hip_rotation_l	knee_angle_l	ankle_angle_l	subtalar_angle_l	mtp_angle_l	lumbar_extension	lumbar_bending	lumbar_rotation
      0.52900000	     -7.78195334	      1.68530455	     -3.01239896	     -0.77946853	      1.03871545	      0.29250908	     32.92379059	      0.14129624	     -3.23637927	     -9.94503374	      6.84712667	      1.60529146	     11.69066564	     -4.04113446	      3.20733331	     -1.24585727	    -10.88970406	     21.38974264	      8.64601885	      2.80537775	     -2.87356566	     -1.48583557	     -2.91826276
      0.53316667	     -7.72993364	      1.65055344	     -2.92815704	     -0.77321805	      1.03786642	      0.29278962	     32.84181656	      0.21560170	     -3.03315012	    -10.06622795	      6.78943323	      1.38034824	     11.68928966	     -4.15593584	      3.14292828	     -1.31077062	    -11.56373915	     21.59003225	      8.87924249	      2.85463928	     -2.89668941	     -1.40851084	     -2.95682465
      0.53733333	     -7.66297676	      1.60636539	     -2.85404164	     -0.76693600	      1.03707737	      0.29308781	     32.75016022	      0.30301769	     -2.82373139	    -10.27845622	      6.70399781	      1.12631206	     11.69288482	     -4.25993792	      3.06148739	     -1.44764352	    -12.29826958	     21.77174866	      9.17052765	      2.94529639	     -2.93722704	     -1.31698018	     -2.97051431
      0.54150000	     -7.58867085	      1.56337461	     -2.77110348	     -0.76066408	      1.03633966	      0.29338333	     32.65097080	      0.38582097	     -2.59233386	    -10.56023679	      6.58750734	      0.82072074	     11.69847132	     -4.33391133	      2.97368525	     -1.58374062	    -13.10832828	     21.94577748	      9.50715325	      3.06997098	     -2.99051206	     -1.22244712	     -2.99078843
      0.54566667	     -7.49964369	      1.50577755	     -2.69597216	     -0.75433783	      1.03566246	      0.29368277	     32.53264309	      0.48438761	     -2.36540887	    -10.90366371	      6.42746506	      0.46441072	     11.70681097	     -4.40112853	      2.86235845	     -1.77863858	    -13.97764328	     22.08488770	      9.88160749	      3.23423348	     -3.03948990	     -1.11158004	     -3.00029628
      0.54983333	     -7.43691134	      1.45080252	     -2.61994669	     -0.74799597	      1.03497191	      0.29399813	     32.44765211	      0.58256852	     -2.12366830	    -11.31704962	      6.22912635	      0.07063439	     11.71825415	     -4.40263090	      2.74117128	     -2.00342120	    -14.92216200	     22.21092582	     10.31504093	      3.44252489	     -3.05858732	     -0.99650847	     -3.00427350
      0.55400000	     -7.33943014	      1.38514492	     -2.56334930	     -0.74164355	      1.03436637	      0.29433638	     32.33826577	      0.69609495	     -1.89035369	    -11.80864539	      5.99219076	     -0.32900405	     11.74175067	     -4.41073349	      2.59931205	     -2.29593018	    -15.93255244	     22.31634726	     10.81936036	      3.83166078	     -3.12531218	     -0.85390087	     -2.98987094
      0.55816667	     -7.27152252	      1.31996728	     -2.47430537	     -0.73527041	      1.03378223	      0.29466581	     32.23407702	      0.80073332	     -1.62799325	    -12.29434999	      5.71628683	     -0.81692791	     11.75167735	     -4.34713790	      2.44350634	     -2.54932546	    -17.02208880	     22.35275761	     11.29332955	      4.11059024	     -3.14169063	     -0.73649088	     -2.99791970
      0.56233333	     -7.16372563	      1.24094141	     -2.40981827	     -0.72889461	      1.03327971	      0.29504035	     32.10208075	      0.92623335	     -1.37994175	    -12.84842241	      5.41391659	     -1.28841736	     11.76008454	     -4.29644528	      2.25680410	     -2.89850131	    -18.17711218	     22.37752959	     11.88257381	      4.44825482	     -3.22059231	     -0.58537054	     -2.97648051
      0.56650000	     -7.07172016	      1.16703243	     -2.33821464	     -0.72251534	      1.03279434	      0.29539822	     32.00443800	      1.03624665	     -1.20031308	    -13.47348800	      5.10671952	     -1.66459080	     11.87127040	     -4.18610403	      2.06343867	     -3.24039031	    -19.40615548	     22.28334316	     12.44311315	      8.04617427	     -3.27468796	     -0.45032963	     -2.90345766
      0.57066667	     -6.98745790	      1.09373742	     -2.26469835	     -0.71614487	      1.03235071	      0.29580633	     31.89366289	      1.15807779	     -0.91842755	    -14.07892518	      4.74315823	     -2.26153920	     11.85503740	     -4.03591154	      1.85838574	     -3.56613202	    -20.69654986	     22.18356672	     12.99084357	      8.13544209	     -3.31028691	     -0.31001670	     -2.94273445
      0.57483333	     -6.88856346	      1.00667380	     -2.20045736	     -0.70976764	      1.03195632	      0.29623209	     31.78398344	      1.28943031	     -0.70684908	    -14.74416726	      4.39502161	     -2.73897940	     11.83421500	     -3.85857542	      1.61582758	     -3.96829423	    -22.07612453	     22.05158443	     13.65376739	      8.29615143	     -3.37225128	     -0.14597528	     -2.90137765
